<svg xmlns="http://www.w3.org/2000/svg" viewBox="0 0 900 900" role="img" aria-labelledby="title"><title id="title">NTCX Earth at night</title><defs><radialGradient id="earth" cx="35%" cy="28%" r="75%"><stop stop-color="#fff1a5"/><stop offset=".16" stop-color="#e8ac37"/><stop offset=".38" stop-color="#70400d"/><stop offset=".67" stop-color="#111315"/><stop offset="1" stop-color="#020304"/></radialGradient><radialGradient id="halo"><stop stop-color="#ffd56a" stop-opacity=".48"/><stop offset=".62" stop-color="#d8871b" stop-opacity=".12"/><stop offset="1" stop-color="#000" stop-opacity="0"/></radialGradient><filter id="soft"><feGaussianBlur stdDeviation="22"/></filter><filter id="grain"><feTurbulence type="fractalNoise" baseFrequency=".7" numOctaves="4"/><feColorMatrix values="1 0 0 0 .1 0 1 0 0 .05 0 0 1 0 0 0 0 0 .18 0"/><feBlend in="SourceGraphic" mode="screen"/></filter><clipPath id="globe"><circle cx="450" cy="450" r="330"/></clipPath></defs><circle cx="450" cy="450" r="405" fill="url(#halo)" filter="url(#soft)"/><circle cx="450" cy="450" r="330" fill="url(#earth)" stroke="#e6ac43" stroke-width="4" stroke-opacity=".72"/><g clip-path="url(#globe)"><path fill="#d89e39" fill-opacity=".7" stroke="#ffe39b" stroke-opacity=".42" stroke-width="2" d="M229 267l44-55 76-27 59 20 54-9 42 43-26 39-59-4-28 45-54-8-40 36-64-29zm137 124l58-25 48 28 7 56-31 34 8 64-45 54-20 94-43 62-35-52 12-75-28-56 28-53-15-61zm182-151l52-19 55 26 62-1 38 36-13 39-60 3-43 32-54-13-25-46zm90 154l60-20 72 24 31 57-42 41-17 72-58 22-39-49-58-30 21-64zm89 142l62-9 63 35 20 51-62 28-56-18-44-42z"/><g fill="#ffe29a" opacity=".94"><circle cx="298" cy="321" r="5"/><circle cx="322" cy="344" r="3"/><circle cx="360" cy="307" r="4"/><circle cx="406" cy="292" r="3"/><circle cx="478" cy="247" r="5"/><circle cx="520" cy="274" r="3"/><circle cx="568" cy="293" r="5"/><circle cx="621" cy="326" r="3"/><circle cx="657" cy="370" r="5"/><circle cx="600" cy="405" r="4"/><circle cx="556" cy="434" r="5"/><circle cx="530" cy="477" r="3"/><circle cx="470" cy="508" r="4"/><circle cx="414" cy="548" r="4"/><circle cx="366" cy="590" r="3"/><circle cx="305" cy="574" r="4"/><circle cx="265" cy="498" r="3"/></g><g fill="none" stroke="#fff0b0" stroke-opacity=".3" stroke-width="5"><path d="M255 361c74-35 130-43 199-20s109 12 190-35"/><path d="M267 518c77-42 154-38 218-7s108 16 165-19"/><path d="M325 220c56 65 65 147 45 228s-8 161 39 244"/></g><rect x="110" y="110" width="680" height="680" fill="#fff4c4" opacity=".08" filter="url(#grain)"/></g><circle cx="337" cy="287" r="64" fill="#fff4bd" opacity=".26" filter="url(#soft)"/><path d="M143 486a330 330 0 0 0 616 104" fill="none" stroke="#f6c85a" stroke-width="5" stroke-opacity=".7"/><path d="M150 465a330 330 0 0 0 605 119" fill="none" stroke="#fff0b2" stroke-width="2" stroke-opacity=".4"/></svg>